<svg xmlns="http://www.w3.org/2000/svg" viewBox="0 0 32 32"><title>87-Phone-Add</title><g id="_87-Phone-Add" data-name="87-Phone-Add"><path d="M29.2,23.51l-7.07-7.07a1,1,0,0,0-1.41,0L17.18,20l-5.66-5.66,3.54-3.54a1,1,0,0,0,0-1.41L8,2.3a1,1,0,0,0-1.41,0l-4.95,5A5.91,5.91,0,0,0,.32,9.41a4.64,4.64,0,0,0,1.3,4.91L17.18,29.87a4.85,4.85,0,0,0,3.44,1.55,4.63,4.63,0,0,0,1.47-.25,5.91,5.91,0,0,0,2.16-1.3l5-4.95a1,1,0,0,0,0-1.41Zm-6.36,4.95a4.05,4.05,0,0,1-1.38.82,2.63,2.63,0,0,1-2.87-.82l-7.78-7.78L3,12.9A2.85,2.85,0,0,1,3,8.66L7.28,4.42l5.66,5.66L10.11,12.9a2,2,0,0,0,0,2.83l5.66,5.66a2,2,0,0,0,2.83,0l2.83-2.83,5.66,5.66Z" fill="#ffffff"/><polygon points="23 13 25 13 25 9 29 9 29 7 25 7 25 3 23 3 23 7 19 7 19 9 23 9 23 13" fill="#ffffff"/></g></svg>